<svg width="24" height="24" viewBox="0 0 24 24" fill="none" xmlns="http://www.w3.org/2000/svg">
<path fill-rule="evenodd" clip-rule="evenodd" d="M12.2928 3.29286C14.3402 1.24548 17.6597 1.24548 19.7071 3.29286C21.7544 5.34024 21.7544 8.6597 19.7071 10.7071L13.2071 17.2071C11.9881 18.426 10.0118 18.426 8.79284 17.2071C7.57389 15.9881 7.57389 14.0118 8.79284 12.7929L14.7928 6.79286C15.1834 6.40233 15.8165 6.40233 16.2071 6.79286C16.5976 7.18338 16.5976 7.81655 16.2071 8.20707L10.2071 14.2071C9.76915 14.645 9.76915 15.355 10.2071 15.7929C10.645 16.2308 11.3549 16.2308 11.7928 15.7929L18.2928 9.29286C19.5592 8.02653 19.5592 5.9734 18.2928 4.70707C17.0265 3.44074 14.9734 3.44074 13.7071 4.70707L7.20705 11.2071C5.1123 13.3018 5.1123 16.6981 7.20706 18.7929C9.30181 20.8876 12.6981 20.8876 14.7928 18.7929L17.2928 16.2929C17.6834 15.9023 18.3165 15.9023 18.7071 16.2929C19.0976 16.6834 19.0976 17.3165 18.7071 17.7071L16.2071 20.2071C13.3313 23.0829 8.66865 23.0829 5.79284 20.2071C2.91704 17.3313 2.91703 12.6687 5.79284 9.79286L12.2928 3.29286Z" fill="#8194A7"/>
</svg>
